<?xml version="1.0" encoding="UTF-8"?>
<svg id="Layer_1" data-name="Layer 1" xmlns="http://www.w3.org/2000/svg" viewBox="0 0 2172 724">
  <defs>
    <style>
      .cls-1 {
        fill: #fed103;
      }

      .cls-2 {
        fill: #0a214e;
      }

      .cls-3 {
        fill: #ec1f23;
      }

      .cls-4 {
        fill: #041330;
      }

      .cls-5 {
        fill: #fdfdfd;
      }
    </style>
  </defs>
  <g>
    <path class="cls-4" d="M1422.27,472.35l-107.58-89.14,83.33-50.51c9.73-5.9,15.59-16.51,15.41-27.89-.19-11.37-6.4-21.79-16.31-27.37l-99.7-56.06c-4.88-2.75-10.29-4.11-15.68-4.11-6.37,0-12.72,1.9-18.17,5.66l-53.89,37.18,1.68-91.48c.18-9.68-4.03-18.92-11.46-25.13-5.81-4.86-13.09-7.46-20.54-7.46-2.07,0-4.15.2-6.22.61l-113.4,22.46c-8.09,1.6-14.95,6.17-19.56,12.44l-.06-2.29c-.26-9.41-4.65-18.22-12-24.09-5.72-4.57-12.78-7.01-19.99-7.01-2.05,0-4.11.2-6.16.6l-114.19,22.39c-15.74,3.09-26.77,17.35-25.78,33.36l5,81.31c-3.48-1.27-7.19-1.94-10.96-1.94-.34,0-.67,0-1.01.02l-102.89,3.25c-11.96.38-22.18,7.27-27.36,17.17-1-1.68-2.16-3.28-3.47-4.78-6.08-6.93-14.84-10.89-24.05-10.89-.15,0-101.91,1.4-101.91,1.4-15.66.22-28.87,11.74-31.2,27.23-.25,1.66-3.91,26.06-7.52,56.13-7.97-7.91-17.37-15.08-28.09-21.4,6.4-9.91,11.86-21.56,14.57-34.73,11.55-56.05-12.4-101.38-67.44-127.65-26.91-12.84-61.2-19.36-101.92-19.36-37.28,0-79.72,5.34-126.12,15.88-78.11,17.74-150.77,42.26-153.82,43.29-16.31,5.52-25.32,22.97-20.39,39.47l24.28,81.28c4.13,13.82,16.81,22.85,30.64,22.85,2.5,0,5.05-.3,7.58-.91,0,0,4.2-1.02,11.51-2.8l58.09,233.03c3.61,14.47,16.59,24.26,31.02,24.26,1.85,0,3.73-.16,5.61-.49.49-.09,12.65-2.17,62.1-8.15,61.37-7.42,149.11-20.38,202.24-47.15,27.47-13.84,48.89-33.19,63.01-55.37,1.62,2.65,3.34,5.23,5.16,7.74,18.92,26.17,46.68,43.56,80.29,50.3,11.12,2.23,22.19,3.36,32.9,3.36,22.71,0,41.49-4.83,56.6-11.49.12.11.25.23.38.34,5.87,5.2,13.42,8.04,21.21,8.04.68,0,1.36-.02,2.04-.06l94.29-6.01c10.83-.69,20.09-6.71,25.35-15.38,5.76,8.66,15.61,14.3,26.64,14.3.53,0,1.07-.01,1.61-.04l103.59-5.14c9.19-.46,17.29-4.75,22.82-11.27,5.66,7.35,14.45,12.17,24.4,12.47l105.14,3.11c.32,0,.63.01.95.01,8.21,0,16.12-3.16,22.08-8.84,6.19-5.9,9.76-14.03,9.92-22.58l.35-19.24,61.43,58.45c6.06,5.76,13.99,8.82,22.06,8.82,3.84,0,7.72-.69,11.44-2.12l113.19-43.36c10.62-4.07,18.28-13.47,20.13-24.69,1.85-11.22-2.4-22.58-11.16-29.83ZM354.39,450.95l-.28-1.32c3.46-.39,6.98-.75,10.44-1.02-3.36.86-6.78,1.64-10.16,2.34ZM721.14,425.43c-.3.08-.79.18-1.51.25-.62.06-1.22.1-1.77.12-.28-2.06-.48-5.22-.21-9.83.88-15.19,2.87-34.42,4.94-52,.41,17.75.74,35.95.74,47.75,0,8.91-1.62,12.67-2.19,13.72Z"/>
    <path class="cls-4" d="M1916.75,359.26l168.12-151.6c12.21-11.03,16.45-28.14,10.81-43.6-5.64-15.46-19.92-25.81-36.36-26.37l-195.38-6.74c-.39-.01-.78-.02-1.17-.02-8.58,0-16.85,3.24-23.15,9.1l-83.19,77.36-74.29-74.95c-7.2-7.28-17.19-11.46-27.42-11.46-.37,0-.75,0-1.12.02l-196.47,5.37c-15.71.41-29.49,10.17-35.1,24.85-5.61,14.68-1.85,31.14,9.59,41.95l164.12,154.74-177.39,161.84c-12.09,11-16.27,28.03-10.65,43.39,5.62,15.36,19.81,25.67,36.12,26.27l193.6,7.29c.5.02,1.01.03,1.51.03,9.77,0,19.03-3.72,26.04-10.45l89.19-85.31s81.67,84.43,81.7,84.46c7.42,7.61,17.77,11.98,28.39,11.98.49,0,.98,0,1.5-.03l193.22-7.31c16.25-.6,30.48-10.82,36.25-26.02,5.77-15.21,1.91-32.29-9.84-43.53l-168.61-161.26Z"/>
  </g>
  <g>
    <path class="cls-2" d="M1424.08,448.79l-107.58-89.14,83.33-50.51c9.73-5.9,15.59-16.51,15.41-27.89-.19-11.37-6.4-21.79-16.31-27.37l-99.7-56.06c-4.88-2.75-10.29-4.11-15.68-4.11-6.37,0-12.72,1.9-18.17,5.66l-53.89,37.18,1.68-91.48c.18-9.68-4.03-18.92-11.46-25.13-5.81-4.86-13.09-7.46-20.54-7.46-2.07,0-4.15.2-6.22.61l-113.4,22.46c-8.09,1.6-14.95,6.17-19.56,12.44l-.06-2.29c-.26-9.41-4.65-18.22-12-24.09-5.72-4.57-12.78-7.01-19.99-7.01-2.05,0-4.11.2-6.16.6l-114.19,22.39c-15.74,3.09-26.77,17.35-25.78,33.36l5,81.31c-3.48-1.27-7.19-1.94-10.96-1.94-.34,0-.67,0-1.01.02l-102.89,3.25c-11.96.38-22.18,7.27-27.36,17.17-1-1.68-2.16-3.28-3.47-4.78-6.08-6.93-14.84-10.89-24.05-10.89-.15,0-101.91,1.4-101.91,1.4-15.66.22-28.87,11.74-31.2,27.23-.25,1.66-3.91,26.06-7.52,56.13-7.97-7.91-17.37-15.08-28.09-21.4,6.4-9.91,11.86-21.56,14.57-34.73,11.55-56.05-12.4-101.38-67.44-127.65-26.91-12.84-61.2-19.36-101.92-19.36-37.28,0-79.72,5.34-126.12,15.88-78.11,17.74-150.77,42.26-153.82,43.29-16.31,5.52-25.32,22.97-20.39,39.47l24.28,81.28c4.13,13.82,16.81,22.85,30.64,22.85,2.5,0,5.05-.3,7.58-.91,0,0,4.2-1.02,11.51-2.8l58.09,233.03c3.61,14.47,16.59,24.26,31.02,24.26,1.85,0,3.73-.16,5.61-.49.49-.09,12.65-2.17,62.1-8.15,61.37-7.42,149.11-20.38,202.24-47.15,27.47-13.84,48.89-33.19,63.01-55.37,1.62,2.65,3.34,5.23,5.16,7.74,18.92,26.17,46.68,43.56,80.29,50.3,11.12,2.23,22.19,3.36,32.9,3.36,22.71,0,41.49-4.83,56.6-11.49.12.11.25.23.38.34,5.87,5.2,13.42,8.04,21.21,8.04.68,0,1.36-.02,2.04-.06l94.29-6.01c10.83-.69,20.09-6.71,25.35-15.38,5.76,8.66,15.61,14.3,26.64,14.3.53,0,1.07-.01,1.61-.04l103.59-5.14c9.19-.46,17.29-4.75,22.82-11.27,5.66,7.35,14.45,12.17,24.4,12.47l105.14,3.11c.32,0,.63.01.95.01,8.21,0,16.12-3.16,22.08-8.84,6.19-5.9,9.76-14.03,9.92-22.58l.35-19.24,61.43,58.45c6.06,5.76,13.99,8.82,22.06,8.82,3.84,0,7.72-.69,11.44-2.12l113.19-43.36c10.62-4.07,18.28-13.47,20.13-24.69,1.85-11.22-2.4-22.58-11.16-29.83ZM356.2,427.4l-.28-1.32c3.46-.39,6.98-.75,10.44-1.02-3.36.86-6.78,1.64-10.16,2.34ZM722.95,401.87c-.3.08-.79.18-1.51.25-.62.06-1.22.1-1.77.12-.28-2.06-.48-5.22-.21-9.83.88-15.19,2.87-34.42,4.94-52,.41,17.75.74,35.95.74,47.75,0,8.91-1.62,12.67-2.19,13.72Z"/>
    <path class="cls-2" d="M1918.56,335.71l168.12-151.6c12.21-11.03,16.45-28.14,10.81-43.6-5.64-15.46-19.92-25.81-36.36-26.37l-195.38-6.74c-.39-.01-.78-.02-1.17-.02-8.58,0-16.85,3.24-23.15,9.1l-83.19,77.36-74.29-74.95c-7.2-7.28-17.19-11.46-27.42-11.46-.37,0-.75,0-1.12.02l-196.47,5.37c-15.71.41-29.49,10.17-35.1,24.85-5.61,14.68-1.85,31.14,9.59,41.95l164.12,154.74-177.39,161.84c-12.09,11-16.27,28.03-10.65,43.39,5.62,15.36,19.81,25.67,36.12,26.27l193.6,7.29c.5.02,1.01.03,1.51.03,9.77,0,19.03-3.72,26.04-10.45l89.19-85.31s81.67,84.43,81.7,84.46c7.42,7.61,17.77,11.98,28.39,11.98.49,0,.98,0,1.5-.03l193.22-7.31c16.25-.6,30.48-10.82,36.25-26.02,5.77-15.21,1.91-32.29-9.84-43.53l-168.61-161.26Z"/>
  </g>
  <g>
    <g>
      <path class="cls-1" d="M475.53,330.01s31.53-21.21,38.03-52.75.57-68.23-49.88-92.31-129.77-18.73-207.17-1.15c-77.4,17.58-150.65,42.39-150.65,42.39l24.28,81.28s17.11-4.16,42.43-10.3l65.78,263.88s11.66-2.1,63.83-8.41c52.17-6.31,141.61-18.73,191.69-43.96,50.07-25.23,76.25-73.2,60.01-118.68-16.24-45.48-78.36-60.01-78.36-60.01ZM380.71,278.63c4.32,10.54,2.3,28.78-20.14,35.68-20.26,6.22-52.29,13-58.32,14.25l-12.78-59.55c69.61-16.24,86.97-.8,91.24,9.62ZM406.38,444.17c-27.84,15.41-75.17,19.29-75.17,19.29l-13.72-63.91c15.46-2.88,62.48-10.83,82.54-5.11,24.19,6.89,34.19,34.32,6.35,49.73Z"/>
      <path class="cls-1" d="M754.94,285.57s2.2,71.84,2.2,102.58-13.62,44.09-32.81,45.83c-19.19,1.74-39.12-3.94-36.83-43.44s11.55-103.46,11.55-103.46l-101.47,1.4s-10.02,66.49-13.33,115.8c-3.31,49.3,25.37,93.58,78.77,104.29,53.4,10.71,88.02-12.26,103.07-29.96l1.72,29.58,94.29-6.01-4.26-219.87-102.89,3.25Z"/>
      <polygon class="cls-1" points="895.74 168.99 916.15 501.04 1019.74 495.9 1009.93 146.6 895.74 168.99"/>
      <polygon class="cls-1" points="1403.66 473.43 1261.45 355.61 1383.24 281.78 1283.54 225.72 1178.34 298.29 1181.16 144.49 1067.76 166.95 1069.49 497.07 1174.63 500.18 1176.32 408.19 1290.47 516.79 1403.66 473.43"/>
    </g>
    <path class="cls-3" d="M2063.89,158.87l-177.63,160.18h-74.16c-4.95-22.36-27.11-39.27-53.62-39.27s-48.67,16.91-53.62,39.27h-73.98l-174.13-164.18c-3.03-2.86-1.08-7.96,3.08-8.07l196.55-5.37c1.27-.04,2.49.46,3.38,1.36l97.51,98.37,107.31-99.79,195.38,6.74c5.55.19,8.05,7.04,3.93,10.76Z"/>
    <path class="cls-5" d="M2059.5,532.53l-193.24,7.31c-1.6.06-3.14-.56-4.25-1.7l-105.12-108.68-113.62,108.68c-.72.69-1.69,1.06-2.69,1.02l-193.68-7.29c-5.42-.2-7.87-6.89-3.86-10.54l199.1-181.65h63.13c5.68,21.51,27.38,37.56,53.21,37.56s47.53-16.05,53.21-37.56h61.84l190.14,181.85c4.08,3.9,1.47,10.79-4.17,11Z"/>
    <ellipse class="cls-5" cx="1758.48" cy="328.51" rx="36.56" ry="30.63"/>
  </g>
</svg>