<?xml version="1.0" encoding="utf-8"?>
<!-- Generator: Adobe Illustrator 24.1.3, SVG Export Plug-In . SVG Version: 6.00 Build 0)  -->
<svg version="1.1" id="Layer_1" xmlns="http://www.w3.org/2000/svg" xmlns:xlink="http://www.w3.org/1999/xlink" x="0px" y="0px"
	 viewBox="0 0 734.1 515" style="enable-background:new 0 0 734.1 515;" xml:space="preserve">
<style type="text/css">
	.st0{fill:#041330;}
	.st1{fill:#0A214E;}
	.st2{fill:#EC1F23;}
	.st3{fill:#FDFDFD;}
</style>
<g>
	<path class="st0" d="M525.2,263l168.1-151.6c12.2-11,16.4-28.1,10.8-43.6S684.2,42,667.8,41.4l-195.4-6.7c-0.4,0-0.8,0-1.2,0
		c-8.6,0-16.8,3.2-23.2,9.1l-83.2,77.4l-74.3-74.9c-7.2-7.3-17.2-11.5-27.4-11.5c-0.4,0-0.8,0-1.1,0L65.6,40.1
		C49.9,40.5,36.1,50.3,30.5,65s-1.8,31.1,9.6,41.9l164.1,154.7L26.8,423.5c-12.1,11-16.3,28-10.7,43.4s19.8,25.7,36.1,26.3
		l193.6,7.3c0.5,0,1,0,1.5,0c9.8,0,19-3.7,26-10.5l89.2-85.3c0,0,81.7,84.4,81.7,84.5c7.4,7.6,17.8,12,28.4,12c0.5,0,1,0,1.5,0
		l193.2-7.3c16.3-0.6,30.5-10.8,36.3-26c5.8-15.2,1.9-32.3-9.8-43.5L525.2,263L525.2,263z"/>
</g>
<g>
	<path class="st1" d="M527,239.4L695.1,87.8c12.2-11,16.4-28.1,10.8-43.6S686,18.4,669.6,17.9l-195.4-6.7c-0.4,0-0.8,0-1.2,0
		c-8.6,0-16.8,3.2-23.2,9.1l-83.2,77.4l-74.3-74.9c-7.2-7.3-17.2-11.5-27.4-11.5c-0.4,0-0.8,0-1.1,0L67.4,16.6
		C51.7,17,37.9,26.7,32.3,41.4s-1.8,31.1,9.6,41.9L206,238.1L28.6,399.9c-12.1,11-16.3,28-10.7,43.4s19.8,25.7,36.1,26.3l193.6,7.3
		c0.5,0,1,0,1.5,0c9.8,0,19-3.7,26-10.5l89.2-85.3c0,0,81.7,84.4,81.7,84.5c7.4,7.6,17.8,12,28.4,12c0.5,0,1,0,1.5,0l193.2-7.3
		c16.3-0.6,30.5-10.8,36.3-26c5.8-15.2,1.9-32.3-9.8-43.5L527,239.4L527,239.4z"/>
</g>
<g>
	<path class="st2" d="M672.3,62.6L494.7,222.8h-74.2c-4.9-22.4-27.1-39.3-53.6-39.3s-48.7,16.9-53.6,39.3h-74L65.2,58.6
		c-3-2.9-1.1-8,3.1-8.1l196.6-5.4c1.3,0,2.5,0.5,3.4,1.4l97.5,98.4L473,45.1l195.4,6.7C673.9,52,676.4,58.9,672.3,62.6z"/>
	<path class="st3" d="M667.9,436.3l-193.2,7.3c-1.6,0.1-3.1-0.6-4.3-1.7L365.3,333.2L251.7,441.9c-0.7,0.7-1.7,1.1-2.7,1l-193.7-7.3
		c-5.4-0.2-7.9-6.9-3.9-10.5l199.1-181.6h63.1c5.7,21.5,27.4,37.6,53.2,37.6s47.5-16,53.2-37.6H482l190.1,181.9
		C676.2,429.2,673.6,436.1,667.9,436.3L667.9,436.3z"/>
	<ellipse class="st3" cx="366.9" cy="232.2" rx="36.6" ry="30.6"/>
</g>
</svg>
