<svg id="Layer_1" data-name="Layer 1" xmlns="http://www.w3.org/2000/svg" viewBox="0 0 271.98 271.98"><path d="M170.12,787A127.67,127.67,0,0,0,297.79,659.3H42.46A127.67,127.67,0,0,0,170.12,787Z" transform="translate(-34.13 -523.3)" fill="#f1f2f2"/><path d="M170.12,795.29c-75,0-136-61-136-136V651h272v8.33C306.12,734.28,245.11,795.29,170.12,795.29Zm-119-127.67a119.35,119.35,0,0,0,238.11,0Z" transform="translate(-34.13 -523.3)" fill="#231f20"/><path d="M170.12,531.63A127.67,127.67,0,0,0,42.46,659.3H297.79A127.67,127.67,0,0,0,170.12,531.63Z" transform="translate(-34.13 -523.3)" fill="#da2428"/><path d="M306.12,667.62h-272V659.3c0-75,61-136,136-136s136,61,136,136ZM51.07,651H289.18a119.35,119.35,0,0,0-238.11,0Z" transform="translate(-34.13 -523.3)" fill="#231f20"/><path d="M99.77,590.62a8.32,8.32,0,0,1-5.62-14.47,112.19,112.19,0,0,1,37-22.57,8.32,8.32,0,1,1,5.77,15.61,95.76,95.76,0,0,0-31.51,19.25A8.3,8.3,0,0,1,99.77,590.62Z" transform="translate(-34.13 -523.3)" fill="#fff"/><path d="M76.79,621a8.18,8.18,0,0,1-3.73-.89,8.31,8.31,0,0,1-3.7-11.17c1.29-2.59,2.71-5.15,4.2-7.63a8.33,8.33,0,1,1,14.26,8.6c-1.27,2.11-2.48,4.3-3.58,6.5A8.33,8.33,0,0,1,76.79,621Z" transform="translate(-34.13 -523.3)" fill="#fff"/><circle cx="170.12" cy="659.3" r="36.11" transform="translate(-266.89 -412.92) rotate(-21.81)" fill="#e6e7e8"/><path d="M170.12,701.51a42.22,42.22,0,1,1,42.22-42.21A42.26,42.26,0,0,1,170.12,701.51Zm0-72.22a30,30,0,1,0,30,30A30,30,0,0,0,170.12,629.29Z" transform="translate(-34.13 -523.3)" fill="#231f20"/><circle cx="170.12" cy="659.3" r="17.09" transform="translate(-264.4 -414.74) rotate(-21.55)" fill="#d1d3d4"/><path d="M170.12,679.71a20.42,20.42,0,1,1,20.42-20.41A20.43,20.43,0,0,1,170.12,679.71Zm0-34.17a13.76,13.76,0,1,0,13.76,13.76A13.77,13.77,0,0,0,170.12,645.54Z" transform="translate(-34.13 -523.3)" fill="#231f20"/></svg>